<?xml version="1.0" standalone="no"?>
<!DOCTYPE svg PUBLIC "-//W3C//DTD SVG 20010904//EN"
 "http://www.w3.org/TR/2001/REC-SVG-20010904/DTD/svg10.dtd">
<svg version="1.0" xmlns="http://www.w3.org/2000/svg"
 width="896.000000pt" height="896.000000pt" viewBox="0 0 896.000000 896.000000"
 preserveAspectRatio="xMidYMid meet">
<metadata>
Created by potrace 1.14, written by Peter Selinger 2001-2017
</metadata>
<g transform="translate(0.000000,896.000000) scale(0.100000,-0.100000)"
fill="#000000" stroke="none">
<path d="M8554 8638 c-32 -26 -155 -154 -239 -249 -219 -250 -433 -529 -619
-809 -63 -96 -120 -180 -126 -187 -5 -7 -10 -16 -10 -21 0 -5 -9 -19 -20 -32
-11 -13 -20 -29 -20 -37 0 -7 -4 -13 -10 -13 -5 0 -10 -7 -10 -15 0 -8 -4 -15
-10 -15 -5 0 -10 -4 -10 -9 0 -13 -72 -134 -85 -143 -5 -4 -6 -8 -2 -8 5 0 0
-12 -11 -27 -71 -103 -442 -823 -424 -823 4 0 2 -4 -4 -8 -9 -6 -80 -160 -181
-392 -13 -30 -28 -64 -34 -75 -11 -25 -219 -536 -223 -550 -4 -13 -11 -32 -52
-138 -19 -48 -34 -94 -34 -102 0 -8 -4 -15 -8 -15 -5 0 -9 -6 -9 -12 0 -7 -15
-51 -33 -98 -50 -132 -106 -288 -176 -490 -35 -102 -67 -192 -71 -200 -3 -8
-7 -19 -8 -25 -2 -5 -21 -62 -43 -125 -22 -63 -72 -209 -111 -325 -38 -115
-77 -227 -86 -247 -8 -21 -13 -38 -10 -38 2 0 -4 -20 -15 -45 -11 -25 -19 -46
-19 -48 1 -4 -8 -30 -27 -82 -10 -27 -19 -57 -20 -65 -2 -8 -7 -23 -12 -35 -9
-18 -60 -167 -66 -190 -2 -5 -6 -17 -9 -25 -3 -8 -20 -58 -37 -110 -17 -52
-35 -104 -40 -115 -5 -11 -36 -99 -70 -195 -33 -96 -65 -184 -70 -195 -5 -11
-23 -56 -41 -100 -57 -140 -135 -256 -204 -301 -30 -19 -165 -29 -165 -12 0 5
-4 7 -9 3 -19 -11 -236 85 -286 127 -5 5 -25 20 -44 33 -95 68 -228 216 -315
352 -42 65 -156 282 -156 297 0 3 -9 25 -20 49 -23 50 -42 103 -76 212 -14 44
-28 87 -31 95 -3 8 -8 24 -10 35 -2 11 -7 31 -13 45 -9 24 -38 134 -46 175
-11 56 -13 66 -18 74 -3 4 -8 23 -10 42 -3 19 -12 68 -21 109 -9 41 -19 89
-21 105 -2 17 -6 41 -9 55 -6 33 -23 126 -29 170 -3 19 -8 46 -11 60 -2 13 -7
42 -10 65 -7 49 -22 146 -31 200 -4 22 -7 55 -8 74 l-1 35 151 60 c176 71 220
94 254 133 30 34 64 93 54 93 -3 0 -1 7 6 15 11 13 16 118 8 155 -16 68 -86
153 -157 190 -64 33 -166 31 -259 -4 -39 -15 -75 -28 -79 -27 -4 0 -16 -8 -26
-16 -27 -25 -31 -15 -42 104 -3 37 -8 88 -11 113 -6 48 -10 94 -18 205 -3 39
-8 104 -11 145 -13 169 -20 286 -31 510 -13 279 -16 442 -17 890 l-2 485 -24
45 c-47 87 -128 144 -221 155 -56 7 -160 -10 -160 -26 0 -6 -4 -8 -10 -4 -7 4
-138 -107 -161 -138 -3 -4 -50 -53 -105 -110 -55 -56 -142 -151 -194 -212 -52
-60 -99 -115 -105 -121 -5 -6 -23 -28 -40 -49 -16 -21 -42 -52 -56 -69 -14
-17 -56 -71 -93 -121 -37 -49 -73 -97 -79 -105 -7 -8 -37 -51 -67 -95 -30 -44
-57 -82 -60 -85 -3 -3 -29 -41 -58 -85 -28 -44 -56 -85 -60 -91 -5 -5 -15 -21
-22 -35 -7 -13 -16 -26 -19 -29 -3 -3 -14 -18 -23 -35 -74 -125 -163 -271
-171 -276 -5 -3 -8 -10 -8 -15 0 -7 -79 -157 -119 -224 -5 -8 -24 -44 -42 -80
-18 -36 -36 -66 -40 -68 -5 -2 -8 -12 -8 -23 0 -10 -4 -19 -10 -19 -5 0 -10
-4 -10 -10 0 -5 -36 -81 -79 -169 -44 -88 -77 -162 -74 -165 4 -3 1 -6 -5 -6
-7 0 -12 -7 -12 -15 0 -8 -9 -30 -20 -50 -11 -19 -16 -35 -12 -35 4 0 2 -4 -4
-8 -5 -4 -26 -45 -46 -92 -20 -47 -44 -98 -52 -115 -9 -16 -16 -37 -16 -46 0
-9 -7 -22 -15 -29 -8 -7 -15 -19 -15 -26 0 -8 -4 -22 -9 -32 -12 -23 -29 -64
-90 -217 -29 -71 -56 -139 -61 -150 -5 -11 -27 -67 -49 -125 -22 -58 -45 -118
-52 -135 -7 -16 -13 -34 -15 -40 -1 -5 -21 -59 -44 -120 -23 -60 -43 -114 -44
-120 -2 -5 -8 -23 -14 -38 -7 -16 -12 -33 -12 -38 0 -5 -4 -17 -10 -27 -5 -9
-19 -44 -30 -78 -15 -42 -29 -65 -48 -76 -15 -8 -72 -41 -127 -74 -55 -32
-103 -57 -108 -56 -4 1 -7 -2 -7 -7 0 -5 -19 -19 -43 -31 -60 -30 -135 -103
-134 -130 0 -3 -5 -15 -12 -28 -46 -85 -21 -218 56 -300 30 -32 115 -82 138
-82 8 0 15 -1 15 -3 0 -6 -31 -102 -40 -122 -14 -33 -111 -328 -116 -355 -3
-13 -9 -29 -13 -35 -5 -5 -12 -26 -17 -45 -10 -43 -9 -42 -17 -60 -4 -8 -34
-98 -67 -200 -34 -102 -65 -194 -70 -205 -5 -11 -25 -69 -45 -130 -20 -60 -52
-154 -71 -208 -20 -54 -37 -107 -39 -117 -2 -11 -11 -34 -19 -52 -8 -18 -24
-60 -35 -93 -11 -33 -25 -73 -32 -90 -7 -16 -13 -33 -14 -37 -2 -5 -4 -10 -5
-13 -1 -3 -3 -8 -4 -12 -1 -8 -20 -59 -36 -98 -5 -11 -13 -33 -18 -50 -6 -16
-20 -55 -31 -85 -18 -48 -21 -77 -21 -225 l1 -170 31 -35 32 -35 169 -3 169
-3 30 28 c16 15 38 42 49 59 19 32 143 354 218 569 23 66 46 128 52 137 5 10
9 22 9 27 0 5 5 22 11 38 6 15 10 28 9 28 -1 0 7 23 18 50 31 81 165 479 165
493 0 6 4 12 9 12 4 0 8 6 8 13 0 7 23 81 50 163 28 82 64 190 80 239 15 50
47 144 70 210 22 66 42 125 44 130 3 15 86 268 93 285 3 8 7 20 9 25 9 35 101
292 107 302 6 10 88 57 277 160 25 14 51 30 58 35 6 6 12 7 12 3 0 -4 6 -2 14
4 24 20 231 129 536 283 135 68 248 127 251 131 3 5 8 8 10 6 2 -1 58 24 124
56 66 31 154 73 195 92 41 19 108 50 147 69 100 47 231 106 243 109 3 0 15 6
28 13 12 7 23 10 23 7 1 -3 2 -8 3 -12 1 -5 6 -33 11 -63 10 -66 13 -85 20
-127 6 -38 11 -71 20 -128 3 -22 9 -53 12 -70 3 -16 7 -39 9 -50 6 -51 55
-290 79 -390 3 -11 7 -29 10 -40 12 -52 46 -183 79 -300 2 -5 6 -17 9 -25 3
-8 21 -62 40 -120 45 -134 84 -232 138 -345 23 -49 43 -92 43 -95 1 -3 11 -21
24 -41 12 -20 22 -41 22 -48 0 -6 5 -11 10 -11 6 0 10 -5 10 -11 0 -7 25 -51
56 -98 275 -419 628 -681 1034 -766 76 -16 227 -22 290 -10 121 21 260 79 333
138 90 72 237 237 237 266 0 6 3 11 8 11 4 0 12 9 17 19 24 46 108 218 116
236 42 100 68 166 69 170 1 12 5 27 19 60 7 17 15 37 17 45 2 8 24 74 50 145
25 72 75 216 110 320 36 105 68 197 71 205 3 8 7 18 8 23 2 4 3 8 5 10 1 1 3
9 5 17 2 8 10 32 19 53 9 20 14 37 11 37 -3 0 1 14 10 30 9 17 13 30 9 30 -4
0 -2 6 3 13 6 6 13 24 17 39 3 15 11 40 18 55 6 15 12 33 13 38 2 6 31 91 65
190 34 99 63 185 64 190 2 6 6 17 9 25 3 8 17 49 31 90 35 106 116 342 123
360 3 8 5 18 5 23 -1 4 3 7 10 7 6 0 9 3 5 6 -3 3 10 49 30 102 19 54 36 102
37 107 2 6 8 21 13 35 6 14 23 61 38 105 15 44 33 94 41 112 8 17 14 34 14 37
0 4 16 48 35 99 20 50 49 128 66 172 17 44 41 105 54 137 13 31 21 59 18 62
-4 3 -1 6 5 6 7 0 11 3 10 8 -1 4 4 21 11 37 7 17 28 71 48 120 20 50 45 110
56 135 11 25 21 47 22 50 1 3 9 22 18 44 9 21 17 44 17 50 0 7 4 16 9 22 4 5
32 63 61 129 99 226 300 642 331 687 11 15 18 28 14 28 -6 0 24 59 35 70 3 3
17 28 31 55 42 81 91 169 99 180 4 6 20 33 36 60 45 83 49 89 57 99 5 6 22 34
38 61 40 68 50 85 76 122 13 17 23 34 23 37 0 4 112 171 186 277 107 153 328
438 400 516 14 15 40 45 58 66 17 21 54 62 81 91 28 30 71 77 98 105 l47 52 0
162 c0 179 -1 182 -69 232 -33 24 -41 25 -172 25 -126 0 -138 -2 -165 -22z
m-5398 -2250 c4 -189 13 -441 18 -523 3 -38 8 -119 11 -180 3 -60 8 -139 11
-175 3 -36 7 -94 9 -130 2 -36 6 -83 9 -105 2 -22 8 -78 11 -125 4 -47 9 -105
12 -130 2 -25 6 -67 8 -95 2 -27 6 -66 9 -85 3 -19 8 -68 12 -107 6 -70 6 -73
-17 -82 -13 -5 -49 -20 -79 -34 -30 -14 -77 -35 -105 -47 -27 -12 -88 -40
-133 -61 -46 -22 -85 -39 -87 -39 -2 0 -52 -23 -112 -51 -59 -28 -110 -51
-113 -52 -13 -3 -574 -282 -757 -377 -74 -38 -133 -63 -133 -56 0 6 4 16 9 22
5 5 19 38 32 74 12 36 26 70 29 75 4 6 11 21 15 35 4 14 17 45 28 70 12 25 22
50 23 55 6 31 18 55 27 55 6 0 8 3 5 6 -7 7 6 40 81 207 17 38 31 70 31 73 0
2 16 39 36 81 34 72 55 118 114 248 12 28 28 53 34 57 6 4 8 8 4 8 -7 0 139
297 152 310 3 3 13 21 22 40 9 19 38 71 63 115 25 44 52 94 60 110 9 17 25 44
35 60 11 17 23 38 26 48 4 9 10 17 15 17 5 0 9 5 9 11 0 20 274 440 292 447 4
2 8 8 8 12 0 8 105 154 143 200 7 9 33 42 57 75 56 74 64 84 69 79 2 -2 5 -63
7 -136z"/>
</g>
</svg>
